<?xml version="1.0" standalone="no"?>
<!DOCTYPE svg PUBLIC "-//W3C//DTD SVG 20010904//EN"
 "http://www.w3.org/TR/2001/REC-SVG-20010904/DTD/svg10.dtd">
<svg version="1.0" xmlns="http://www.w3.org/2000/svg"
 width="512.000000pt" height="512.000000pt" viewBox="0 0 512.000000 512.000000"
 preserveAspectRatio="xMidYMid meet">

<g transform="translate(0.000000,512.000000) scale(0.100000,-0.100000)"
fill="#000000" stroke="none">
<path d="M2315 5109 c-800 -83 -1501 -518 -1927 -1196 -604 -961 -490 -2237
274 -3068 425 -462 951 -737 1583 -827 119 -17 512 -16 635 1 622 86 1148 360
1572 820 349 378 572 862 650 1406 17 118 17 512 0 630 -59 416 -191 769 -410
1099 -92 140 -185 254 -315 385 -399 404 -893 653 -1462 737 -123 18 -478 26
-600 13z m-660 -1683 l0 -39 -61 -13 c-109 -22 -194 -83 -194 -139 0 -14 28
-86 61 -162 49 -111 316 -728 614 -1416 23 -54 46 -98 51 -98 5 1 103 180 218
397 l209 396 -16 42 c-23 60 -339 760 -375 833 -18 34 -44 74 -59 88 -34 31
-139 65 -203 65 -69 0 -80 6 -80 46 l0 34 410 0 410 0 0 -35 c0 -27 -4 -35
-18 -35 -35 0 -123 -31 -143 -51 -30 -30 -23 -71 35 -197 29 -64 91 -199 136
-300 45 -100 86 -185 91 -188 16 -10 289 577 289 621 0 17 -7 40 -15 52 -19
27 -101 53 -167 53 l-48 0 0 40 0 40 350 0 350 0 0 -35 c0 -32 -3 -35 -37 -40
-62 -11 -105 -26 -158 -56 -100 -56 -120 -87 -301 -463 -92 -192 -167 -357
-167 -366 3 -30 386 -881 394 -873 4 4 163 366 352 803 327 754 344 796 331
821 -31 62 -110 108 -226 133 -25 6 -28 11 -28 48 l0 41 152 -6 c83 -4 247 -7
365 -7 l213 0 0 -35 c0 -32 -3 -35 -37 -40 -50 -8 -110 -30 -150 -54 -67 -41
-105 -110 -245 -432 -246 -566 -689 -1592 -732 -1691 l-41 -98 -42 0 -41 0
-131 308 c-72 169 -175 412 -229 540 -55 128 -103 233 -107 234 -9 0 -268
-491 -456 -865 l-110 -218 -45 3 -45 3 -183 420 c-100 231 -287 661 -416 955
-143 329 -250 562 -278 605 -91 139 -269 285 -346 285 -24 0 -26 3 -26 45 l0
45 463 -2 462 -3 0 -39z"/>
</g>
</svg>
