<svg width="41" height="41" viewBox="0 0 41 41" fill="none" xmlns="http://www.w3.org/2000/svg"><path d="M34.575.643h-28.4C2.932.643.293 3.275.293 6.51v28.324c0 3.235 2.64 5.868 5.884 5.868h28.399c3.244 0 5.884-2.633 5.884-5.868V6.51c-.001-3.235-2.64-5.867-5.885-5.867zm3.53 34.19a3.53 3.53 0 0 1-3.53 3.521h-28.4a3.53 3.53 0 0 1-3.53-3.52V6.51a3.53 3.53 0 0 1 3.53-3.52h28.4a3.53 3.53 0 0 1 3.53 3.52v28.324z" fill="#070707" stroke="#070707" stroke-width="0.5"/><mask id="path-2-inside-1_169_11" fill="white"><path d="m31.42 29.679-4.312-.001V22.476c0-.497-.036-.988-.16-1.472-.516-1.999-2.742-1.882-3.628-.935-.445.476-.736 1.014-.748 1.679-.003.157-.012.316-.012.474v7.453h-4.304V16.312h4.302v1.793l.034.015.092-.125c.432-.598.927-1.13 1.585-1.488.735-.402 1.529-.536 2.355-.512.895.026 1.744.227 2.51.709.98.617 1.579 1.52 1.929 2.604.273.844.362 1.716.363 2.598.002 2.538 0 5.077 0 7.616 0 .05-.004.1-.007.157z"/></mask><path d="m31.42 29.679-4.312-.001V22.476c0-.497-.036-.988-.16-1.472-.516-1.999-2.742-1.882-3.628-.935-.445.476-.736 1.014-.748 1.679-.003.157-.012.316-.012.474v7.453h-4.304V16.312h4.302v1.793l.034.015.092-.125c.432-.598.927-1.13 1.585-1.488.735-.402 1.529-.536 2.355-.512.895.026 1.744.227 2.51.709.98.617 1.579 1.52 1.929 2.604.273.844.362 1.716.363 2.598.002 2.538 0 5.077 0 7.616 0 .05-.004.1-.007.157z" fill="#070707"/><path d="M31.42 29.679v.03h.029v-.03l-.03-.001zm-4.312-.001h-.03v.03h.03v-.031zm0-7.203h.031-.031zm-.16-1.472.029-.008-.03.008zm-3.628-.935.023.02-.023-.02zm-.748 1.679-.03-.002h.03zm-.012.474h.03-.03zm0 7.453v.031h.03v-.03h-.03zm-4.304 0h-.03v.031h.03v-.03zm0-13.365v-.03h-.03v.03h.03zm4.302 0h.03v-.03h-.03v.03zm0 1.793h-.031v.02l.018.008.013-.028zm.034.015-.012.028.022.01.015-.02-.025-.018zm.092-.125.025.018-.026-.017zm1.585-1.488.014.027-.015-.027zm2.355-.512.001-.03v.03zm2.51.709.016-.026-.015.026zm1.929 2.604-.03.01.03-.01zm.363 2.598h.03-.03zm0 7.616h-.03.03zm-.007.126H27.087v.061H31.451v-.062zm-4.28.03V29.477h-.062V29.683h.06zm0-.198v-7.003h-.062v7.003h.06zm0-7.003c0-.498-.038-.992-.163-1.48l-.06.015c.124.482.161.97.161 1.465h.061zm-.163-1.48c-.261-1.012-.957-1.49-1.7-1.595-.74-.103-1.529.166-1.98.647l.046.04c.435-.465 1.203-.728 1.925-.627.72.1 1.395.563 1.65 1.55l.059-.016zm-3.68-.948c-.448.479-.743 1.024-.755 1.698l.06.002c.013-.656.3-1.187.74-1.66l-.044-.04zm-.755 1.698c-.003.156-.012.318-.012.476h.06c0-.159.01-.314.013-.475l-.061-.002zm-.012.476c-.001 2.416 0 4.832 0 7.248h.06v-7.248h-.06zm0 7.248V29.642v-.001V29.68h.06V29.47h-.06zm.03.175H18.228v.061H22.589v-.061zm-4.273.03V16.312h-.062V29.676h.062zm-.031-13.334H22.59v-.061H18.23v.06zm4.27-.03V18.107h.062V16.32h-.061zm.02 1.82.034.016.024-.058-.034-.015-.025.056zm.07.006.093-.126-.05-.036c-.03.042-.062.082-.093.124l.05.037zm.093-.127c.43-.597.921-1.124 1.574-1.48l-.03-.053c-.663.362-1.162.897-1.594 1.498l.05.035zm1.574-1.48c.73-.397 1.518-.531 2.34-.508l.002-.06c-.83-.025-1.63.11-2.371.515l.03.054zm2.34-.508c.891.026 1.735.227 2.494.705l.033-.052c-.77-.485-1.625-.688-2.524-.714l-.002.061zm2.494.705c.974.613 1.568 1.51 1.917 2.587l.058-.018c-.352-1.09-.954-2-1.942-2.622l-.032.052zm1.917 2.587c.271.84.36 1.709.361 2.589h.062c-.001-.884-.09-1.759-.365-2.607l-.059.017zm.361 2.589c.003 2.538.001 5.077 0 7.616h.062c0-2.538.002-5.077 0-7.616h-.062zm0 7.616c0 .049-.003.096-.007.155l.06.003c.003-.055.008-.107.008-.158h-.06z" fill="#070707" mask="url(#path-2-inside-1_169_11)"/><path d="M15.61 29.67H11.334V16.318H15.647V29.666z" fill="#070707" stroke="#070707" stroke-width="0.0306072"/><path d="M13.67 9.672c.67-.001 1.24.236 1.645.643.404.406.643.982.645 1.659.002.67-.238 1.24-.648 1.644-.41.403-.991.64-1.675.64-1.332.001-2.281-.95-2.284-2.29-.002-1.34.96-2.295 2.316-2.296z" fill="#070707" stroke="#070707" stroke-width="0.0306072"/></svg>