<svg width="41" height="40" viewBox="0 0 41 40" fill="none" xmlns="http://www.w3.org/2000/svg"><g clip-path="url(#clip0_169_15)"><path d="M34.32 0H5.96C2.72 0 .085 2.628.085 5.86v28.28C.085 37.372 2.72 40 5.96 40h28.36c3.24 0 5.876-2.629 5.876-5.86V5.86c0-3.232-2.636-5.86-5.876-5.86zm3.526 34.14a3.525 3.525 0 0 1-3.526 3.516H5.96a3.525 3.525 0 0 1-3.525-3.515V5.86A3.525 3.525 0 0 1 5.96 2.343h28.36a3.525 3.525 0 0 1 3.526 3.515v28.28z" fill="#070707" stroke="#070707" stroke-width="0.5"/><path d="M18.965 16.484c0-2.584-2.108-4.687-4.7-4.687H7.214v16.406h7.05c2.593 0 4.701-2.102 4.701-4.687A4.67 4.67 0 0 0 17.37 20a4.67 4.67 0 0 0 1.595-3.516zm-2.35 7.032a2.35 2.35 0 0 1-2.35 2.343h-4.7v-4.688h4.7a2.35 2.35 0 0 1 2.35 2.344zm-7.05-4.688v-4.687h4.7a2.35 2.35 0 0 1 2.35 2.344 2.35 2.35 0 0 1-2.35 2.344h-4.7z" fill="#070707" stroke="#070707" stroke-width="0.5"/><path d="M27.191 16.484c-3.239 0-5.875 2.629-5.875 5.86 0 3.23 2.636 5.86 5.876 5.86a5.9 5.9 0 0 0 5.09-2.93l-2.034-1.173a3.53 3.53 0 0 1-6.378-.585h9.2v-1.171c0-3.231-2.636-5.86-5.876-5.86zm-3.323 4.688a3.53 3.53 0 0 1 6.648 0h-6.648z" fill="#070707" stroke="#070707" stroke-width="0.5"/><path d="M22.49 11.797h9.402v2.344H22.49v-2.343z" fill="#070707" stroke="#070707" stroke-width="0.5"/></g><defs><clipPath id="clip0_169_15"><rect width="40.111" height="40" fill="white" transform="translate(0.0847168)"/></clipPath></defs></svg>